<svg xmlns="http://www.w3.org/2000/svg" width="255" height="17" viewBox="0 0 255 17">
    <path fill="#000" fill-rule="evenodd" d="M.795 16V2l1.56-.48V16H.795zm22.223.22L12.498 5.28V16h-1.56V1.48l10.52 11.02V2.04l1.56-.48v14.66zm10.104-7.98h5.94l-.48 1.4h-5.46V16h-1.56V1.72h8.74l-.48 1.42h-6.7v5.1zM47.485 16V2l1.56-.48V16h-1.56zm22.223.22L59.188 5.28V16h-1.56V1.48l10.52 11.02V2.04l1.56-.48v14.66zm8.544-.22V2l1.56-.48V16h-1.56zM98.275 3.12h-4.42V16h-1.56V3.12h-4.9l.48-1.42h10.88l-.48 1.42zm13.543 6.44V16h-1.58V9.56L105.178 2l1.56-.48 4.3 6.48 4.28-6.48 1.56.48-5.06 7.56zm26.287-7.86c2.72 0 5.12.74 5.12 4 0 2.42-1.32 3.44-3.12 3.82l3.9 5.72-1.2.98-4.36-6.52h-2.98V16h-1.58V1.7h4.22zm-2.64 1.42v5.16h2.64c1.94 0 3.52-.58 3.52-2.58 0-2.02-1.58-2.58-3.52-2.58h-2.64zm17.483 11.46h7.2l-.48 1.42h-8.28V1.64h8.76l-.48 1.42h-6.72v5.1h5.94l-.48 1.4h-5.46v5.02zm25.584.36c-2.08 1.48-4.32 1.38-4.32 1.38-4.12 0-7.48-3.36-7.48-7.48 0-4.12 3.36-7.48 7.48-7.48 0 0 2.24-.1 4.34 1.4v2.02s-1.54-1.98-4.34-1.98c-3.28 0-5.88 2.76-5.88 6.04 0 3.3 2.6 6.04 5.88 6.04 2.64 0 4.16-1.76 4.32-1.96v2.02zm14.883 1.38c-4.12 0-7.48-3.36-7.48-7.48 0-4.12 3.36-7.48 7.48-7.48 4.1 0 7.48 3.36 7.48 7.48 0 4.12-3.38 7.48-7.48 7.48zm0-1.44c3.28 0 5.88-2.74 5.88-6.04 0-3.28-2.6-6.04-5.88-6.04s-5.88 2.76-5.88 6.04c0 3.3 2.6 6.04 5.88 6.04zM213.098 1.7c2.72 0 5.12.74 5.12 4 0 2.42-1.32 3.44-3.12 3.82l3.9 5.72-1.2.98-4.36-6.52h-2.98V16h-1.58V1.7h4.22zm-2.64 1.42v5.16h2.64c1.94 0 3.52-.58 3.52-2.58 0-2.02-1.58-2.58-3.52-2.58h-2.64zm20.364-1.48c4.4 0 7.38 2.82 7.18 7.18.2 4.12-2.78 7.18-7.18 7.18h-4.44V1.64h4.44zm-2.88 1.42V14.6h2.88c3.54 0 5.8-2.94 5.6-5.78.2-3.24-2.06-5.76-5.6-5.76h-2.88zm18.943 2.18c0 1.4 1.82 2.02 3.44 2.6 1.82.64 4.68 1.56 4.68 4.2 0 2.74-1.72 4.18-5.26 4.18-2.1 0-3.66-.78-4.56-1.58v-1.76c.9.78 3.04 1.86 4.56 1.86 2.6 0 3.6-1.12 3.6-2.7 0-1.54-2.04-2.18-3.8-2.78-1.62-.56-4.32-1.58-4.32-4.02 0-2.86 2.32-3.9 4.58-3.9 2.08 0 3.42.72 4.08 1.38v1.7c-.66-.74-2.12-1.58-4.08-1.58-1.86 0-2.92.7-2.92 2.4z"/>
</svg>
