<svg xmlns="http://www.w3.org/2000/svg" width="300" height="118" viewBox="0 0 300 118">
    <g fill="none" fill-rule="evenodd">
        <path fill="#000" d="M25.795 114v-14l1.56-.48V114h-1.56zm22.223.22l-10.52-10.94V114h-1.56V99.48l10.52 11.02v-10.46l1.56-.48v14.66zm10.104-7.98h5.94l-.48 1.4h-5.46V114h-1.56V99.72h8.74l-.48 1.42h-6.7v5.1zM72.485 114v-14l1.56-.48V114h-1.56zm22.223.22l-10.52-10.94V114h-1.56V99.48l10.52 11.02v-10.46l1.56-.48v14.66zm8.544-.22v-14l1.56-.48V114h-1.56zm20.023-12.88h-4.42V114h-1.56v-12.88h-4.9l.48-1.42h10.88l-.48 1.42zm13.543 6.44V114h-1.58v-6.44l-5.06-7.56 1.56-.48 4.3 6.48 4.28-6.48 1.56.48-5.06 7.56zm26.287-7.86c2.72 0 5.12.74 5.12 4 0 2.42-1.32 3.44-3.12 3.82l3.9 5.72-1.2.98-4.36-6.52h-2.98v6.3h-1.58V99.7h4.22zm-2.64 1.42v5.16h2.64c1.94 0 3.52-.58 3.52-2.58 0-2.02-1.58-2.58-3.52-2.58h-2.64zm17.483 11.46h7.2l-.48 1.42h-8.28V99.64h8.76l-.48 1.42h-6.72v5.1h5.94l-.48 1.4h-5.46v5.02zm25.584.36c-2.08 1.48-4.32 1.38-4.32 1.38-4.12 0-7.48-3.36-7.48-7.48 0-4.12 3.36-7.48 7.48-7.48 0 0 2.24-.1 4.34 1.4v2.02s-1.54-1.98-4.34-1.98c-3.28 0-5.88 2.76-5.88 6.04 0 3.3 2.6 6.04 5.88 6.04 2.64 0 4.16-1.76 4.32-1.96v2.02zm14.883 1.38c-4.12 0-7.48-3.36-7.48-7.48 0-4.12 3.36-7.48 7.48-7.48 4.1 0 7.48 3.36 7.48 7.48 0 4.12-3.38 7.48-7.48 7.48zm0-1.44c3.28 0 5.88-2.74 5.88-6.04 0-3.28-2.6-6.04-5.88-6.04s-5.88 2.76-5.88 6.04c0 3.3 2.6 6.04 5.88 6.04zm19.683-13.18c2.72 0 5.12.74 5.12 4 0 2.42-1.32 3.44-3.12 3.82l3.9 5.72-1.2.98-4.36-6.52h-2.98v6.3h-1.58V99.7h4.22zm-2.64 1.42v5.16h2.64c1.94 0 3.52-.58 3.52-2.58 0-2.02-1.58-2.58-3.52-2.58h-2.64zm20.364-1.48c4.4 0 7.38 2.82 7.18 7.18.2 4.12-2.78 7.18-7.18 7.18h-4.44V99.64h4.44zm-2.88 1.42v11.54h2.88c3.54 0 5.8-2.94 5.6-5.78.2-3.24-2.06-5.76-5.6-5.76h-2.88zm18.943 2.18c0 1.4 1.82 2.02 3.44 2.6 1.82.64 4.68 1.56 4.68 4.2 0 2.74-1.72 4.18-5.26 4.18-2.1 0-3.66-.78-4.56-1.58v-1.76c.9.78 3.04 1.86 4.56 1.86 2.6 0 3.6-1.12 3.6-2.7 0-1.54-2.04-2.18-3.8-2.78-1.62-.56-4.32-1.58-4.32-4.02 0-2.86 2.32-3.9 4.58-3.9 2.08 0 3.42.72 4.08 1.38v1.7c-.66-.74-2.12-1.58-4.08-1.58-1.86 0-2.92.7-2.92 2.4z"/>
        <g stroke="#000" stroke-linecap="square" stroke-width="1.5">
            <path d="M134.593 57.16l30.794-30.612M174.089 57.167l18.868-18.737c2.895-2.639 4.832-6.319 4.832-10.52 0-7.689-6.27-13.921-14.006-13.921-3.789 0-7.19 1.495-9.709 3.925M106.12 37.527c-2.381-2.548-3.918-5.876-3.918-9.617 0-7.688 6.27-13.922 14.005-13.922 3.905 0 7.397 1.589 9.937 4.15l19.504 19.389"/>
            <path d="M193.863 46.16c2.386 2.548 3.927 5.88 3.927 9.627 0 7.689-6.271 13.922-14.007 13.922-3.903 0-7.395-1.589-9.936-4.15l-19.506-19.391M134.598 17.912l15.398-15.306 35.166 34.92M165.39 65.789L149.995 81.09l-35.184-34.939"/>
            <path d="M125.895 26.538l-18.86 18.73c-2.896 2.638-4.834 6.318-4.834 10.519 0 7.689 6.271 13.922 14.007 13.922 3.781 0 7.177-1.49 9.695-3.912"/>
        </g>
    </g>
</svg>
