<svg xmlns="http://www.w3.org/2000/svg" width="301" height="42" viewBox="0 0 301 42">
    <g fill="none" fill-rule="evenodd">
        <path fill="#000" d="M66.8 28V15.4l1.404-.432V28H66.8zm20.001.198l-9.468-9.846V28h-1.404V14.932l9.468 9.918v-9.414l1.404-.432v13.194zm9.093-7.182h5.346l-.432 1.26h-4.914V28H94.49V15.148h7.866l-.432 1.278h-6.03v4.59zM108.821 28V15.4l1.404-.432V28h-1.404zm20.001.198l-9.468-9.846V28h-1.404V14.932l9.468 9.918v-9.414l1.404-.432v13.194zm7.689-.198V15.4l1.404-.432V28h-1.404zm18.021-11.592h-3.978V28h-1.404V16.408h-4.41l.432-1.278h9.792l-.432 1.278zm12.189 5.796V28h-1.422v-5.796l-4.554-6.804 1.404-.432 3.87 5.832 3.852-5.832 1.404.432-4.554 6.804zm23.658-7.074c2.448 0 4.608.666 4.608 3.6 0 2.178-1.188 3.096-2.808 3.438l3.51 5.148-1.08.882-3.924-5.868h-2.682V28h-1.422V15.13h3.798zm-2.376 1.278v4.644h2.376c1.746 0 3.168-.522 3.168-2.322 0-1.818-1.422-2.322-3.168-2.322h-2.376zm15.735 10.314h6.48L209.786 28h-7.452V15.076h7.884l-.432 1.278h-6.048v4.59h5.346l-.432 1.26h-4.914v4.518zm23.025.324c-1.872 1.332-3.888 1.242-3.888 1.242-3.708 0-6.732-3.024-6.732-6.732s3.024-6.732 6.732-6.732c0 0 2.016-.09 3.906 1.26v1.818s-1.386-1.782-3.906-1.782c-2.952 0-5.292 2.484-5.292 5.436 0 2.97 2.34 5.436 5.292 5.436 2.376 0 3.744-1.584 3.888-1.764v1.818zm13.395 1.242c-3.708 0-6.732-3.024-6.732-6.732s3.024-6.732 6.732-6.732c3.69 0 6.732 3.024 6.732 6.732s-3.042 6.732-6.732 6.732zm0-1.296c2.952 0 5.292-2.466 5.292-5.436 0-2.952-2.34-5.436-5.292-5.436s-5.292 2.484-5.292 5.436c0 2.97 2.34 5.436 5.292 5.436zm17.715-11.862c2.448 0 4.608.666 4.608 3.6 0 2.178-1.188 3.096-2.808 3.438l3.51 5.148-1.08.882-3.924-5.868h-2.682V28h-1.422V15.13h3.798zm-2.376 1.278v4.644h2.376c1.746 0 3.168-.522 3.168-2.322 0-1.818-1.422-2.322-3.168-2.322h-2.376zm18.327-1.332c3.96 0 6.642 2.538 6.462 6.462.18 3.708-2.502 6.462-6.462 6.462h-3.996V15.076h3.996zm-2.592 1.278V26.74h2.592c3.186 0 5.22-2.646 5.04-5.202.18-2.916-1.854-5.184-5.04-5.184h-2.592zm17.049 1.962c0 1.26 1.638 1.818 3.096 2.34 1.638.576 4.212 1.404 4.212 3.78 0 2.466-1.548 3.762-4.734 3.762-1.89 0-3.294-.702-4.104-1.422v-1.584c.81.702 2.736 1.674 4.104 1.674 2.34 0 3.24-1.008 3.24-2.43 0-1.386-1.836-1.962-3.42-2.502-1.458-.504-3.888-1.422-3.888-3.618 0-2.574 2.088-3.51 4.122-3.51 1.872 0 3.078.648 3.672 1.242v1.53c-.594-.666-1.908-1.422-3.672-1.422-1.674 0-2.628.63-2.628 2.16z"/>
        <g stroke="#000" stroke-linecap="square">
            <path d="M17.296 28.58l15.398-15.306M37.045 28.583l9.434-9.368c1.447-1.32 2.416-3.16 2.416-5.26 0-3.844-3.135-6.96-7.003-6.96a6.952 6.952 0 0 0-4.855 1.962M3.06 18.763C1.87 17.49 1.1 15.825 1.1 13.955c0-3.844 3.136-6.96 7.004-6.96 1.952 0 3.698.793 4.968 2.074l9.752 9.694"/>
            <path d="M46.931 23.08c1.194 1.274 1.964 2.94 1.964 4.813 0 3.845-3.136 6.961-7.004 6.961a6.959 6.959 0 0 1-4.967-2.074l-9.754-9.696M17.299 8.956l7.7-7.653 17.582 17.46M32.695 32.894l-7.697 7.651L7.405 23.076"/>
            <path d="M12.947 13.269l-9.43 9.365c-1.448 1.319-2.416 3.159-2.416 5.26 0 3.844 3.135 6.96 7.003 6.96 1.89 0 3.589-.745 4.847-1.956"/>
        </g>
    </g>
</svg>
