<svg xmlns="http://www.w3.org/2000/svg" width="98" height="82" viewBox="0 0 98 82">
    <g fill="none" fill-rule="evenodd" stroke="#000" stroke-linecap="square" stroke-width="1.5">
        <path d="M33.593 56.16l30.794-30.612M73.089 56.167L91.957 37.43c2.895-2.639 4.832-6.319 4.832-10.52 0-7.689-6.27-13.921-14.006-13.921-3.789 0-7.19 1.495-9.709 3.925M5.12 36.527c-2.381-2.548-3.918-5.876-3.918-9.617 0-7.688 6.27-13.922 14.005-13.922 3.905 0 7.397 1.589 9.937 4.15l19.504 19.389"/>
        <path d="M92.863 45.16c2.386 2.548 3.927 5.88 3.927 9.627 0 7.689-6.271 13.922-14.007 13.922-3.903 0-7.395-1.589-9.936-4.15L53.341 45.168M33.598 16.912L48.996 1.606l35.166 34.92M64.39 64.789L48.995 80.09 13.811 45.152"/>
        <path d="M24.895 25.538l-18.86 18.73C3.138 46.905 1.2 50.585 1.2 54.786c0 7.689 6.271 13.922 14.007 13.922 3.781 0 7.177-1.49 9.695-3.912"/>
    </g>
</svg>
