<svg xmlns="http://www.w3.org/2000/svg" width="40" height="40" viewBox="0 0 40 40">
    <g fill="#000" fill-rule="nonzero">
        <path d="M19 25.922V34h-6.5a1 1 0 0 0 0 2h15a1 1 0 0 0 0-2H21v-8.078c4.174-.587 8-4.715 8-8.922a1 1 0 0 0-2 0c0 3.468-3.533 7-7 7-3.468 0-7-3.532-7-7a1 1 0 0 0-2 0c0 4.207 3.826 8.335 8 8.922z"/>
        <path d="M20 22c2.757 0 5-2.243 5-5V9c0-2.757-2.243-5-5-5s-5 2.243-5 5v8c0 2.757 2.243 5 5 5zm0-16c1.655 0 3 1.345 3 3v.5h-1a1 1 0 0 0 0 2h1v2h-1a1 1 0 0 0 0 2h1V17c0 1.655-1.345 3-3 3-1.654 0-3-1.345-3-3v-1.5h1a1 1 0 0 0 0-2h-1v-2h1a1 1 0 0 0 0-2h-1V9c0-1.655 1.346-3 3-3z"/>
    </g>
</svg>
