<svg xmlns="http://www.w3.org/2000/svg" width="40" height="40" viewBox="0 0 40 40">
    <path fill="#000" fill-rule="nonzero" d="M13 36c2.757 0 5-2.243 5-5V16.809l12-2.572v9.773A4.97 4.97 0 0 0 27 23c-2.757 0-5 2.243-5 5s2.243 5 5 5 5-2.243 5-5V12.993 5a.999.999 0 0 0-1.21-.978l-14 3A1 1 0 0 0 16 8v19.009A4.97 4.97 0 0 0 13 26c-2.757 0-5 2.243-5 5s2.243 5 5 5zm14-5c-1.654 0-3-1.346-3-3s1.346-3 3-3 3 1.346 3 3-1.346 3-3 3zm3-24.763v5.954l-12 2.572V8.809l12-2.572zM13 28c1.654 0 3 1.346 3 3s-1.346 3-3 3c-1.655 0-3-1.346-3-3s1.345-3 3-3z"/>
</svg>
