<svg xmlns="http://www.w3.org/2000/svg" width="40" height="40" viewBox="0 0 40 40">
    <path fill="#000" fill-rule="nonzero" d="M14.688 35a4.693 4.693 0 0 0 4.687-4.688V16.947l8.707-2.612a.937.937 0 0 0 .668-.898v-7.5a.937.937 0 0 0-1.207-.897l-9.375 2.812a.937.937 0 0 0-.668.898v17.821a4.66 4.66 0 0 0-2.813-.946A4.693 4.693 0 0 0 10 30.313 4.693 4.693 0 0 0 14.688 35zm4.687-25.553l7.5-2.25v5.543l-7.5 2.25V9.447zM14.687 27.5a2.815 2.815 0 0 1 2.813 2.813 2.815 2.815 0 0 1-2.813 2.812 2.815 2.815 0 0 1-2.812-2.813 2.815 2.815 0 0 1 2.813-2.812z"/>
</svg>
