<svg xmlns="http://www.w3.org/2000/svg" width="40" height="40" viewBox="0 0 40 40">
    <g fill="#000" fill-rule="evenodd">
        <path d="M19.495 3.838A16.052 16.052 0 0 0 8.068 8.572 16.054 16.054 0 0 0 3.333 20c0 4.317 1.682 8.375 4.734 11.428a16.054 16.054 0 0 0 11.428 4.734c4.317 0 8.375-1.681 11.428-4.734A16.056 16.056 0 0 0 35.657 20c0-4.317-1.682-8.375-4.735-11.428a16.052 16.052 0 0 0-11.427-4.734zm10 26.161a14.049 14.049 0 0 1-10 4.143 14.047 14.047 0 0 1-9.999-4.143A14.049 14.049 0 0 1 5.354 20c0-3.777 1.47-7.328 4.142-10a14.047 14.047 0 0 1 9.999-4.142c3.777 0 7.328 1.471 10 4.143A14.048 14.048 0 0 1 33.635 20c0 3.777-1.47 7.328-4.142 10z"/>
        <path d="M24.665 19.206l-7.071-5.555a1.011 1.011 0 0 0-1.634.793v11.112a1.01 1.01 0 0 0 1.634.793l7.07-5.555a1.01 1.01 0 0 0 0-1.588zm-6.685 4.271v-6.954L22.406 20l-4.426 3.477z"/>
    </g>
</svg>
