<svg xmlns="http://www.w3.org/2000/svg" width="40" height="40" viewBox="0 0 40 40">
    <path fill="#FFF" fill-rule="evenodd" d="M14.478 25.47l.015-3.683.688-.007.688-.009-.008-.567-.009-.568-1.986-.008-1.985-.008V21.771l.671.009.672.007.008 3.653c.004 2.008.014 3.67.022 3.69.01.03.15.038.61.031l.599-.008.015-3.683zm11.458-.259c-.028-.074.01-.924.048-1.048.087-.29.272-.431.563-.431.243 0 .397.093.5.304.066.134.072.19.082.684l.01.538h-.593c-.51 0-.595-.007-.61-.047zm1.108 3.968c.58-.164.983-.562 1.135-1.124.025-.096.054-.37.064-.607l.018-.432h-1.12l-.014.387c-.016.44-.061.59-.22.731-.17.15-.483.16-.685.023-.242-.164-.302-.44-.29-1.338l.01-.636 1.158-.008 1.158-.008-.015-.947c-.018-1.057-.04-1.217-.217-1.592-.337-.711-1.271-1.07-2.048-.786-.585.214-.931.6-1.07 1.198-.049.21-.054.4-.054 1.945 0 1.896.006 1.974.199 2.362.344.69 1.207 1.051 1.99.832zm-4.588-1.08a.407.407 0 0 0 .154-.22c.047-.138.051-.313.045-1.939-.007-1.695-.01-1.794-.065-1.905-.14-.284-.493-.311-.817-.063l-.106.08v3.866l.105.081c.24.183.502.222.684.1zm.7 1.092c.177-.052.39-.262.486-.476.184-.41.184-.42.184-2.73 0-1.895-.005-2.129-.052-2.334-.152-.656-.483-.942-1.04-.9-.31.024-.556.148-.85.433a2.032 2.032 0 0 1-.256.226c-.011 0-.022-.628-.022-1.395v-1.394H20.52v8.547H21.606v-.288c0-.191.012-.288.034-.288.018 0 .14.101.272.226.423.399.789.508 1.245.373zm-5.787-.029c.217-.08.473-.258.688-.477.098-.101.197-.184.218-.184.03 0 .04.083.04.334v.333H19.401v-6.334h-1.088v4.886l-.234.234c-.186.185-.264.241-.379.273-.194.054-.318.017-.397-.121-.06-.103-.062-.15-.07-2.689l-.009-2.583H16.14v2.743c0 2.989.003 3.054.17 3.342.183.314.61.413 1.06.243zm.462 2.643c-.706-.012-1.542-.031-1.858-.043-2.12-.076-3.575-.158-3.865-.217a2.144 2.144 0 0 1-1.147-.697c-.43-.53-.66-1.174-.771-2.165-.259-2.303-.253-4.99.015-7.213.118-.975.411-1.678.902-2.17.28-.28.55-.436.91-.528.778-.2 6.867-.359 10.57-.277 2.14.048 4.452.148 5.067.218.794.09 1.352.503 1.739 1.287.292.59.385 1.051.503 2.47.093 1.123.116 1.823.099 3.12-.02 1.552-.118 2.919-.266 3.686-.155.811-.522 1.502-.997 1.877-.366.29-.757.419-1.372.453-.183.011-.413.025-.513.033-.354.028-2.252.104-3.292.134-1.547.043-4.253.058-5.724.032zm-1.908-14.077c-.026-.043-.022-2.536.004-2.889.034-.453-.043-.81-.366-1.72a43.28 43.28 0 0 1-.422-1.272c-.915-2.923-.867-2.751-.78-2.752a32.418 32.418 0 0 1 1.357.007c.006.006.202.719.435 1.586l.435 1.603c.004.014.141-.49.305-1.122.341-1.325.533-2.056.54-2.063.016-.014.185-.017.741-.014l.615.004-.013.098c-.011.08-.431 1.495-.87 2.932-.048.159-.171.568-.272.91-.102.341-.224.747-.273.902l-.089.281v1.755c0 1.646-.003 1.757-.052 1.77-.11.03-1.276.016-1.295-.016zm7.947.105c-.303-.04-.48-.158-.602-.4-.153-.303-.153-.301-.153-3.322v-2.818h1.225l.013 2.598c.014 2.822.01 2.757.178 2.8.155.037.326-.046.539-.264l.204-.208.008-2.463.007-2.463.612-.008.612-.008v6.452l-.083.017c-.1.021-1.028.02-1.103-.002-.045-.012-.052-.054-.052-.307v-.293l-.174.17c-.4.39-.832.573-1.23.52zm-3.084-1.232c.21-.16.212-.174.222-1.987.01-1.41.005-1.65-.038-1.841-.057-.26-.158-.383-.355-.437-.255-.068-.488.078-.57.357-.062.215-.06 3.413.002 3.628.047.161.199.338.311.363a.57.57 0 0 0 .429-.083zm-.48 1.231c-.548-.066-1.051-.39-1.294-.831-.246-.45-.27-.685-.255-2.666.012-1.533.016-1.63.076-1.85.145-.523.425-.88.858-1.095a1.762 1.762 0 0 1 1.8.108c.358.232.575.568.692 1.068.051.221.056.39.056 1.94 0 1.883-.009 1.992-.201 2.4-.185.393-.604.74-1.04.862a2.307 2.307 0 0 1-.692.064z"/>
</svg>
