<svg xmlns="http://www.w3.org/2000/svg" width="40" height="40" viewBox="0 0 40 40">
    <path fill="#FFF" fill-rule="evenodd" d="M5.784 21.248c-.06 0-.109.047-.117.115l-.212 1.628.212 1.6c.008.067.056.114.117.114.059 0 .107-.047.116-.114l.252-1.6-.252-1.628c-.009-.068-.058-.115-.116-.115zm1.196-.89c-.01-.07-.06-.117-.12-.117-.062 0-.113.05-.122.118l-.286 2.632.286 2.573c.008.07.06.12.121.12s.111-.05.121-.119l.325-2.574-.325-2.632zm4.507-2.427a.225.225 0 0 0-.22.22l-.228 4.842.228 3.13a.225.225 0 0 0 .22.218.227.227 0 0 0 .22-.22v.002l.257-3.13-.257-4.842a.227.227 0 0 0-.22-.22zm-2.333 1.683c-.09 0-.163.073-.17.17l-.257 3.208.257 3.104c.006.096.08.168.17.168.09 0 .163-.072.17-.168l.292-3.104-.291-3.21c-.008-.095-.081-.168-.17-.168zm4.703 6.727a.274.274 0 0 0 .27-.27l.223-3.076-.223-6.447a.274.274 0 0 0-.27-.27.273.273 0 0 0-.27.27l-.198 6.446.198 3.078c.005.15.124.269.27.269zm4.852.014c.2 0 .366-.166.37-.37v.002-.002l.155-2.989-.156-7.445a.375.375 0 0 0-.369-.37c-.2 0-.366.166-.369.37l-.14 7.443.14 2.993a.374.374 0 0 0 .37.368zm-2.444-.012c.174 0 .314-.14.32-.32v.002l.189-3.03-.19-6.493a.322.322 0 0 0-.32-.32.321.321 0 0 0-.32.32l-.168 6.493.169 3.03a.321.321 0 0 0 .32.318zm-5.949-.028c.104 0 .187-.083.195-.193l.275-3.13-.275-2.978c-.007-.11-.091-.193-.195-.193a.199.199 0 0 0-.196.195l-.241 2.976.241 3.13c.007.11.09.193.196.193zm-2.314-.171c.076 0 .137-.06.146-.144l.308-3.009-.308-3.123c-.009-.083-.07-.143-.146-.143-.077 0-.138.06-.146.143l-.271 3.123L7.856 26c.008.083.07.144.146.144zm9.48-9.75a.346.346 0 0 0-.344.345l-.154 6.257.154 3.01a.346.346 0 0 0 .344.343c.19 0 .34-.15.344-.345v.003l.173-3.01-.173-6.258a.346.346 0 0 0-.344-.345zm-4.815 9.953a.25.25 0 0 0 .245-.245l.24-3.108-.24-5.95a.25.25 0 0 0-.245-.244.25.25 0 0 0-.245.244l-.213 5.95.213 3.11a.249.249 0 0 0 .245.243zm2.683-.293v-.002l.207-3.057-.207-6.664a.298.298 0 0 0-.294-.295c-.16 0-.29.13-.295.295l-.183 6.664.184 3.058a.297.297 0 0 0 .294.294c.16 0 .29-.13.294-.295v.002zm15.618-6.9c-.49 0-.958.1-1.384.28-.285-3.25-2.99-5.798-6.288-5.798-.807 0-1.594.16-2.29.431-.27.105-.341.214-.344.424v11.44c.003.221.173.405.387.427l9.918.006c1.976 0 3.578-1.614 3.578-3.605 0-1.991-1.601-3.605-3.577-3.605zM19.93 14.48a.4.4 0 0 0-.394.396l-.162 8.12.162 2.947c.003.216.18.393.394.393a.4.4 0 0 0 .394-.396v.004l.175-2.948-.175-8.12a.4.4 0 0 0-.394-.396z"/>
</svg>
