<svg xmlns="http://www.w3.org/2000/svg" width="40" height="40" viewBox="0 0 40 40">
    <path fill="#FFF" fill-rule="evenodd" d="M20 11.802c2.67 0 2.986.01 4.04.058.976.045 1.505.208 1.858.344.466.182.8.399 1.15.748.35.35.566.684.748 1.15.136.353.3.882.344 1.857.048 1.055.058 1.37.058 4.041 0 2.67-.01 2.986-.058 4.04-.045.976-.208 1.505-.344 1.858-.182.466-.399.8-.748 1.15-.35.35-.684.566-1.15.748-.353.137-.882.3-1.857.344-1.054.048-1.37.058-4.041.058-2.67 0-2.987-.01-4.04-.058-.976-.045-1.505-.207-1.858-.344a3.098 3.098 0 0 1-1.15-.748 3.098 3.098 0 0 1-.748-1.15c-.137-.353-.3-.882-.344-1.857-.048-1.055-.058-1.37-.058-4.041 0-2.67.01-2.986.058-4.04.045-.976.207-1.505.344-1.858.182-.466.399-.8.748-1.15.35-.35.684-.566 1.15-.748.353-.136.882-.3 1.857-.344 1.055-.048 1.37-.058 4.041-.058M20 10c2.716 0 3.056.012 4.123.06 1.064.049 1.791.218 2.427.465a4.902 4.902 0 0 1 1.772 1.153 4.902 4.902 0 0 1 1.153 1.772c.247.636.416 1.363.465 2.427.048 1.067.06 1.407.06 4.123s-.012 3.056-.06 4.123c-.049 1.064-.218 1.791-.465 2.427a4.902 4.902 0 0 1-1.153 1.772 4.902 4.902 0 0 1-1.772 1.153c-.636.247-1.363.416-2.427.465-1.067.049-1.407.06-4.123.06s-3.056-.011-4.123-.06c-1.064-.049-1.791-.218-2.427-.465a4.902 4.902 0 0 1-1.772-1.153 4.902 4.902 0 0 1-1.153-1.772c-.247-.636-.416-1.363-.465-2.427C10.011 23.056 10 22.716 10 20s.011-3.056.06-4.123c.049-1.064.218-1.791.465-2.427a4.902 4.902 0 0 1 1.153-1.772 4.902 4.902 0 0 1 1.772-1.153c.636-.247 1.363-.416 2.427-.465C16.944 10.012 17.284 10 20 10zm.02 4.881a5.139 5.139 0 1 0 0 10.278 5.139 5.139 0 0 0 0-10.278zm0 8.475a3.336 3.336 0 1 1 0-6.672 3.336 3.336 0 0 1 0 6.672zm6.488-8.713a1.19 1.19 0 1 0-2.38 0 1.19 1.19 0 0 0 2.38 0z"/>
</svg>
