<svg xmlns="http://www.w3.org/2000/svg" width="40" height="41" viewBox="0 0 40 41">
    <path fill="#000" fill-rule="evenodd" d="M26.99 19.659c-3.809-2.262-10.092-2.47-13.729-1.367a1.105 1.105 0 1 1-.642-2.115c4.175-1.267 11.115-1.023 15.5 1.58a1.105 1.105 0 0 1-1.128 1.902zm-.124 3.35a.922.922 0 0 1-1.267.304c-3.176-1.952-8.02-2.518-11.777-1.377a.923.923 0 0 1-1.15-.614.923.923 0 0 1 .615-1.149c4.292-1.303 9.628-.672 13.276 1.57.433.267.57.834.303 1.267zm-1.446 3.219a.736.736 0 0 1-1.013.245c-2.775-1.696-6.268-2.08-10.382-1.14a.736.736 0 1 1-.328-1.435c4.502-1.03 8.364-.587 11.479 1.317a.737.737 0 0 1 .244 1.013zM20 9.182C13.473 9.182 8.182 14.473 8.182 21c0 6.527 5.291 11.818 11.818 11.818 6.527 0 11.818-5.29 11.818-11.818 0-6.527-5.29-11.818-11.818-11.818z"/>
</svg>
