<?xml version="1.0" standalone="no"?>
<!DOCTYPE svg PUBLIC "-//W3C//DTD SVG 20010904//EN"
 "http://www.w3.org/TR/2001/REC-SVG-20010904/DTD/svg10.dtd">
<svg version="1.0" xmlns="http://www.w3.org/2000/svg"
 width="260.000000pt" height="260.000000pt" viewBox="0 0 260.000000 260.000000"
 preserveAspectRatio="xMidYMid meet">
<metadata>
Created by potrace 1.11, written by Peter Selinger 2001-2013
</metadata>
<g transform="translate(0.000000,260.000000) scale(0.100000,-0.100000)"
fill="#000000" stroke="none">
<path d="M1101 2063 l-193 -188 56 -53 c31 -30 60 -52 65 -50 6 2 66 59 135
126 69 68 130 122 136 120 8 -3 155 -143 555 -532 77 -74 142 -136 145 -136 3
0 30 25 60 55 l55 56 -122 117 c-229 220 -647 627 -667 650 -11 12 -22 22 -26
22 -3 0 -92 -84 -199 -187z"/>
<path d="M473 1974 c-207 -53 -331 -265 -271 -464 12 -42 48 -105 77 -139 l22
-25 51 50 c69 64 69 65 51 83 -9 9 -25 36 -36 60 -62 141 66 301 227 284 77
-8 108 -33 433 -356 l123 -122 55 55 c30 30 55 57 55 61 0 3 -42 47 -92 97
-388 378 -387 377 -473 407 -64 22 -157 26 -222 9z"/>
<path d="M1939 1975 c-61 -16 -133 -53 -160 -81 l-21 -23 58 -55 c51 -47 61
-53 74 -41 8 7 36 23 62 34 144 62 313 -64 292 -218 -11 -82 0 -68 -293 -354
l-194 -189 54 -54 c29 -30 56 -54 59 -54 19 0 468 450 495 496 93 159 40 374
-119 483 -84 58 -211 81 -307 56z"/>
<path d="M669 1642 c-25 -26 -124 -123 -220 -216 -189 -184 -222 -224 -245
-302 -27 -93 -19 -187 22 -269 40 -77 99 -133 184 -173 66 -31 83 -34 155 -34
84 0 139 15 210 57 74 43 74 47 9 109 l-57 55 -25 -19 c-53 -42 -150 -55 -216
-30 -41 15 -98 73 -118 119 -41 96 -14 169 106 285 45 43 145 142 224 219
l143 141 -53 53 c-29 29 -57 52 -63 52 -5 0 -31 -21 -56 -47z"/>
<path d="M1539 1663 c-9 -10 -152 -150 -318 -312 l-302 -294 56 -54 c34 -33
60 -51 68 -47 6 4 73 67 147 139 74 73 214 209 310 303 l175 171 -55 55 c-30
31 -57 56 -60 56 -3 0 -13 -8 -21 -17z"/>
<path d="M537 1234 l-57 -55 63 -62 c98 -95 540 -523 652 -631 55 -53 103 -95
107 -94 3 2 91 85 194 186 l187 184 -54 54 c-29 30 -56 54 -59 54 -3 0 -66
-58 -140 -130 l-135 -130 -21 23 c-11 12 -139 137 -284 277 -145 140 -286 278
-315 305 -84 82 -73 80 -138 19z"/>
<path d="M1386 1221 c-32 -32 -54 -60 -48 -62 6 -2 107 -98 226 -213 242 -234
259 -248 332 -275 204 -77 433 31 499 235 30 94 24 176 -19 268 -22 48 -66
106 -79 106 -3 0 -30 -24 -59 -53 l-53 -53 28 -46 c68 -110 31 -240 -87 -300
-52 -27 -139 -27 -190 -1 -20 10 -136 115 -257 233 -122 118 -224 216 -228
218 -3 1 -33 -24 -65 -57z"/>
</g>
</svg>
